<?xml version="1.0" standalone="no"?>
<!DOCTYPE svg PUBLIC "-//W3C//DTD SVG 20010904//EN"
 "http://www.w3.org/TR/2001/REC-SVG-20010904/DTD/svg10.dtd">
<svg version="1.0" xmlns="http://www.w3.org/2000/svg"
 width="600.000000pt" height="361.000000pt" viewBox="0 0 600.000000 361.000000"
 preserveAspectRatio="xMidYMid meet">

<g transform="translate(0.000000,361.000000) scale(0.100000,-0.100000)"
fill="#000000" stroke="none">
<path d="M2836 3599 c-281 -30 -578 -159 -748 -325 l-59 -58 33 -34 c18 -18
50 -47 70 -64 l38 -29 56 46 c121 98 317 196 474 236 132 33 390 38 530 9 172
-35 333 -110 488 -227 l84 -63 26 19 c15 11 47 40 71 65 l45 46 -25 26 c-38
41 -172 139 -246 180 -258 145 -544 204 -837 173z"/>
<path d="M2865 3209 c-132 -18 -282 -68 -380 -127 -64 -39 -145 -104 -156
-125 -12 -21 3 -41 81 -107 l46 -38 59 45 c33 25 96 63 140 83 261 124 536
101 785 -66 45 -30 84 -54 88 -54 4 0 37 28 75 63 l67 62 -67 58 c-185 157
-485 241 -738 206z"/>
<path d="M1531 3007 c-53 -51 -244 -235 -426 -407 -181 -173 -384 -367 -450
-431 -115 -113 -119 -118 -110 -146 8 -20 18 -29 38 -31 25 -3 45 12 141 107
62 61 115 111 119 111 4 0 7 -263 7 -583 0 -553 1 -585 18 -600 17 -16 85 -17
780 -17 678 0 762 2 776 16 14 13 16 51 16 257 l0 242 19 -40 c22 -50 74 -103
118 -121 21 -9 74 -14 153 -14 l121 0 -3 43 -3 42 -115 5 c-132 6 -150 14
-181 78 -35 71 -6 148 67 178 52 22 289 19 333 -4 50 -25 76 -65 76 -118 l0
-44 48 0 47 0 0 36 c0 96 -71 197 -156 222 -54 16 -314 16 -368 0 -50 -15
-127 -89 -143 -138 -9 -27 -11 29 -12 263 -1 163 2 297 6 297 4 0 57 -49 118
-110 113 -111 143 -128 173 -98 31 31 13 58 -110 177 -120 114 -752 717 -894
853 -40 37 -80 68 -89 68 -10 0 -61 -42 -114 -93z m339 -243 c113 -108 265
-253 338 -322 l132 -126 -2 -600 -3 -601 -690 0 -690 0 -3 601 -2 601 68 64
c37 35 155 147 262 249 320 305 348 330 367 330 10 0 110 -89 223 -196z"/>
<path d="M4273 3068 c-21 -18 -87 -80 -148 -138 -122 -118 -468 -449 -732
-700 -139 -132 -173 -170 -173 -191 0 -31 21 -52 49 -47 11 2 72 51 135 111
63 59 117 107 120 107 3 0 6 -131 6 -292 l0 -292 -32 54 c-22 37 -49 64 -82
85 -47 28 -56 30 -173 34 l-123 3 0 -46 0 -46 99 0 c141 0 191 -24 212 -103
14 -55 -10 -118 -55 -147 -30 -18 -50 -20 -187 -20 -135 0 -158 2 -186 20 -40
24 -63 67 -63 120 l0 41 -42 -3 -43 -3 -3 -45 c-4 -63 39 -145 96 -185 l44
-30 171 -3 c108 -2 186 1 210 8 48 14 102 62 130 114 l22 41 3 -240 c2 -211 4
-241 19 -253 13 -9 185 -12 779 -12 696 0 763 1 775 17 11 13 15 125 19 600
l5 585 117 -111 c69 -65 126 -111 138 -111 28 0 54 43 41 67 -5 10 -139 142
-298 293 -158 151 -399 382 -535 513 -136 130 -254 237 -262 237 -8 0 -32 -14
-53 -32z m265 -296 c108 -104 261 -249 339 -323 l143 -134 0 -590 c0 -324 -4
-596 -8 -603 -7 -10 -152 -12 -693 -10 l-684 3 -3 601 -2 602 337 321 c200
191 344 321 355 321 12 0 102 -79 216 -188z"/>
<path d="M2835 2821 c-76 -22 -194 -84 -229 -120 l-27 -28 70 -66 70 -66 55
33 c136 82 256 87 401 16 53 -25 91 -38 99 -33 24 14 126 111 126 120 -1 28
-172 123 -265 148 -78 20 -223 18 -300 -4z"/>
<path d="M2913 2470 c-68 -35 -102 -109 -83 -180 51 -188 320 -153 320 41 0
118 -129 194 -237 139z"/>
<path d="M640 565 l0 -195 40 0 40 0 0 65 c0 71 9 82 53 71 15 -3 32 -26 55
-71 l32 -65 45 0 c25 0 45 3 45 8 -1 4 -18 36 -40 71 l-39 64 32 21 c59 40 73
105 37 164 -30 49 -72 62 -195 62 l-105 0 0 -195z m214 109 c23 -22 20 -71 -3
-84 -11 -5 -45 -10 -75 -10 l-56 0 0 48 c0 27 3 52 7 55 13 14 111 7 127 -9z"/>
<path d="M1030 565 l0 -195 140 0 140 0 0 30 0 29 -97 3 -98 3 -3 48 -3 47 95
0 96 0 0 35 0 35 -95 0 -95 0 0 45 0 44 98 3 97 3 3 33 3 32 -140 0 -141 0 0
-195z"/>
<path d="M1380 565 l0 -195 125 0 125 0 0 30 0 30 -78 0 c-47 0 -83 5 -90 12
-8 8 -12 59 -12 165 l0 153 -35 0 -35 0 0 -195z"/>
<path d="M1690 565 l0 -195 40 0 40 0 0 195 0 195 -40 0 -40 0 0 -195z"/>
<path d="M1850 565 l0 -195 40 0 40 0 0 120 c0 68 4 120 9 120 6 0 49 -54 96
-120 l86 -120 45 0 44 0 0 195 0 195 -45 0 -44 0 -3 -122 -3 -122 -89 122 -90
122 -43 0 -43 0 0 -195z"/>
<path d="M2290 565 l0 -195 40 0 40 0 0 56 c0 53 12 94 28 94 4 0 34 -34 65
-75 57 -73 59 -75 103 -75 24 0 44 2 44 5 0 3 -34 48 -75 100 -41 51 -75 98
-75 103 0 5 6 15 14 21 8 6 42 45 76 86 l61 75 -49 0 -49 0 -69 -87 -69 -88
-3 88 -3 87 -39 0 -40 0 0 -195z"/>
<path d="M2820 565 l0 -195 40 0 39 0 3 68 3 67 80 5 c93 6 116 17 139 64 21
45 20 84 -4 124 -30 49 -72 62 -195 62 l-105 0 0 -195z m214 109 c23 -22 20
-71 -3 -84 -11 -5 -45 -10 -75 -10 l-56 0 0 48 c0 27 3 52 7 55 13 14 111 7
127 -9z"/>
<path d="M3200 565 l0 -195 35 0 35 0 0 64 c0 49 4 65 16 70 39 15 53 6 91
-64 l38 -70 47 0 47 0 -40 67 c-21 37 -39 70 -39 74 0 3 11 11 25 17 36 17 58
67 52 119 -9 85 -60 113 -207 113 l-100 0 0 -195z m210 105 c24 -24 25 -47 3
-72 -12 -14 -31 -18 -80 -18 l-63 0 0 48 c0 27 3 52 7 55 3 4 30 7 60 7 40 0
58 -5 73 -20z"/>
<path d="M3675 746 c-70 -31 -123 -128 -112 -208 23 -175 241 -240 361 -108
83 92 53 256 -56 309 -51 24 -145 28 -193 7z m163 -73 c48 -30 65 -117 36
-179 -47 -98 -195 -80 -224 27 -19 70 24 157 85 172 28 7 76 -2 103 -20z"/>
<path d="M4150 612 c0 -135 -2 -151 -20 -167 -19 -17 -53 -17 -92 -1 -12 6
-21 0 -33 -24 l-16 -31 35 -14 c46 -20 100 -19 142 1 57 27 64 53 64 229 l0
155 -40 0 -40 0 0 -148z"/>
<path d="M4320 565 l0 -195 140 0 140 0 0 30 0 29 -97 3 -98 3 -3 48 -3 47 95
0 96 0 0 35 0 35 -95 0 -95 0 0 45 0 44 98 3 97 3 3 33 3 32 -140 0 -141 0 0
-195z"/>
<path d="M4765 746 c-43 -20 -92 -72 -106 -113 -6 -19 -9 -62 -7 -94 3 -46 11
-67 34 -96 76 -96 212 -111 297 -34 35 32 34 46 -5 62 -25 10 -33 10 -36 1 -6
-20 -58 -42 -97 -42 -26 0 -45 9 -72 33 -31 29 -37 41 -40 88 -4 45 -1 60 19
89 43 63 127 73 183 21 18 -18 23 -18 53 -6 32 14 32 15 18 38 -27 41 -87 67
-152 67 -33 -1 -72 -7 -89 -14z"/>
<path d="M5052 728 c3 -33 4 -33 61 -36 l57 -3 0 -159 0 -160 40 0 40 0 0 160
0 160 55 0 55 0 0 35 0 35 -156 0 -155 0 3 -32z"/>
</g>
</svg>
